inDegrees=no
num_controls=7
num_derivatives=13
num_iterations=116
num_multipliers=7
num_parameters=0
num_slacks=7
num_states=26
objective=0.516806
objective_accelerations=0.039336
objective_balance=0.002245
objective_effort=0.043793
objective_height=0.419779
objective_ligament=0.011653
solver_duration=1561.973909
status=Solve_Succeeded
success=true
DataType=double
version=3
OpenSimVersion=4.5
endheader
time	/jointset/ground_pelvis/pelvis_tilt/value	/jointset/ground_pelvis/pelvis_tx/value	/jointset/ground_pelvis/pelvis_ty/value	/jointset/hip_l/hip_flexion_l/value	/jointset/hip_l/hip_adduction_l/value	/jointset/hip_l/hip_rotation_l/value	/jointset/back/lumbar_extension/value	/jointset/patellofemoral_l/patellar_flexion_l/value	/jointset/knee_l/knee_flexion_l/value	/jointset/knee_l/knee_adduction_l/value	/jointset/knee_l/knee_rotation_l/value	/jointset/ankle_l/ankle_angle_l/value	/jointset/subtalar_l/subtalar_angle_l/value	/jointset/ground_pelvis/pelvis_tilt/speed	/jointset/ground_pelvis/pelvis_tx/speed	/jointset/ground_pelvis/pelvis_ty/speed	/jointset/hip_l/hip_flexion_l/speed	/jointset/hip_l/hip_adduction_l/speed	/jointset/hip_l/hip_rotation_l/speed	/jointset/back/lumbar_extension/speed	/jointset/patellofemoral_l/patellar_flexion_l/speed	/jointset/knee_l/knee_flexion_l/speed	/jointset/knee_l/knee_adduction_l/speed	/jointset/knee_l/knee_rotation_l/speed	/jointset/ankle_l/ankle_angle_l/speed	/jointset/subtalar_l/subtalar_angle_l/speed	/forceset/tau_hip_flexion_l	/forceset/tau_hip_adduction_l	/forceset/tau_hip_rotation_l	/forceset/tau_knee_flexion_l	/forceset/tau_ankle_angle_l	/forceset/tau_subtalar_angle_l	/forceset/tau_lumbar_extension	lambda_cid13_p0	lambda_cid13_p1	lambda_cid13_p2	lambda_cid13_p3	lambda_cid13_p4	lambda_cid13_p5	lambda_cid14_p0	/jointset/ground_pelvis/pelvis_tilt/accel	/jointset/ground_pelvis/pelvis_tx/accel	/jointset/ground_pelvis/pelvis_ty/accel	/jointset/hip_l/hip_flexion_l/accel	/jointset/hip_l/hip_adduction_l/accel	/jointset/hip_l/hip_rotation_l/accel	/jointset/back/lumbar_extension/accel	/jointset/patellofemoral_l/patellar_flexion_l/accel	/jointset/knee_l/knee_flexion_l/accel	/jointset/knee_l/knee_adduction_l/accel	/jointset/knee_l/knee_rotation_l/accel	/jointset/ankle_l/ankle_angle_l/accel	/jointset/subtalar_l/subtalar_angle_l/accel	gamma_cid13_p0	gamma_cid13_p1	gamma_cid13_p2	gamma_cid13_p3	gamma_cid13_p4	gamma_cid13_p5	gamma_cid14_p0
1	-0.1607362670794812	-0.09269464276082211	0.7279012442710826	1.255396947319754	-0.3273354877346514	-0.007018788329412888	-0.9599292172445196	1.154479773408268	1.15447977340825	-0.078109484489643	-0.1745121183662182	0.1380676347023748	0.01094395738111457	0.102424603619781	0.02375325700579492	0.06872327418930525	-0.2940015101302232	-0.0009466810732844907	-0.06259752171800012	-0.001825397204017912	-0.1780964105216685	-0.1780964105216685	-0.007222355761071173	2.032684459713825e-05	0.003485301432262912	0.001133955040112466	-0.4001798755156296	0.01378360385538148	-0.005205547602758252	-0.293135849421101	0.1093378993558017	0.04529217624161986	0.43695625891591	-14.96240907727067	-17.06202693385653	2.27891844344882	3.872936710657518	-787.0803096038316	-72.79008077198262	-1.915080437157365	1.102818861376465	0.2135272131421149	1.261458723700321	-4.74478232664077	-0.01901061551746248	-1.367991674508124	0.2936890987183801	-4.103225921180055	-4.103225921180016	-0.2434506821010288	-0.008443450046000781	-0.7301839809459152	-0.2656001774684056	-9.3773096377719e-09	-1.754820882416788e-08	4.326745659346816e-08	8.78622187557193e-10	-2.033361281011603e-08	4.458239548230906e-08	-1.184730479236044e-08
1.01	-0.1596585773840931	-0.09244645430092414	0.7286510379802975	1.25222246008163	-0.3273453180809023	-0.007713238847324109	-0.9599308066671079	1.152494404443438	1.152494404443434	-0.078192715510188	-0.1745117582101291	0.1380658888138842	0.0109426594713586	0.112987736816518	0.02588467289366609	0.08119504201272937	-0.3406964724003071	-0.001013281973755446	-0.07627962867113187	0.00165271217295152	-0.2189308421859174	-0.2189308421859171	-0.009418296254269577	4.653828625579981e-05	-0.003859598148137816	-0.001395780411057609	-0.3987934601098969	0.01376168279369814	-0.005235265278743054	-0.2929775842000699	0.1095760251947938	0.04536965234684931	0.4361534994453891	-14.82191115147407	-17.1298888172899	2.30071878590537	3.685485584048781	-786.1710245303151	-72.89453995862121	-1.958293446643837	1.014218884764456	0.2129843809894638	1.233968129375829	-4.601935641307836	0.0004284649901175695	-1.366390899310327	0.3966517802146622	-4.066567636493671	-4.066567636493598	-0.2068410052324694	0.007391420906736728	-0.740411619794543	-0.246999255005203	-1.182329835243824e-08	-2.529762392209374e-08	5.60495759283939e-08	-4.050378256009155e-10	-1.91922581015678e-08	5.061202348506702e-08	-1.553175725217925e-08
1.02	-0.1584790246895492	-0.09217694456127151	0.7295243358312892	1.248587006727983	-0.3273556317776975	-0.008544124573485565	-0.9598932590113232	1.150102087992476	1.150102087992487	-0.07829774099012564	-0.1745112883436966	0.137989940194948	0.01091599640187815	0.1227972034509409	0.02801751295673135	0.0934241025446487	-0.3861947332350167	-0.001043351182145219	-0.08988456336804868	0.0060020184710587	-0.2594859077480212	-0.2594859077480201	-0.01158124763960151	4.226891331194434e-05	-0.01135524465683554	-0.003939076904783483	-0.3974070447041643	0.0137397617320148	-0.005264982954727722	-0.2928193189790134	0.1098141510337858	0.04544712845204626	0.4353507399748578	-14.69186572093943	-17.19570725066091	2.321949761834341	3.532488370307021	-785.4031501712244	-72.99148273064741	-2.01095358992049	0.952085548913657	0.2138120481809323	1.212917265399369	-4.50544203956593	-0.01170427710122668	-1.352557223265131	0.4679284829459325	-4.047352700751027	-4.047352700751027	-0.2368528605281912	-0.01453961296650415	-0.7603333666054478	-0.2683123859795657	-1.848011984628673e-08	-3.203796785923888e-08	6.529228105846096e-08	9.052881225351344e-09	-3.049131406754936e-08	5.613662303886276e-08	-1.779332318240443e-08
1.03	-0.1572029961842556	-0.09188580886423989	0.7305191567110025	1.244499439121969	-0.3273660121107643	-0.009510623513355299	-0.9598091630099802	1.147305345433462	1.147305345433484	-0.07842430367095288	-0.174510859862096	0.1378390058686713	0.01086415551920525	0.1324997936378779	0.03023909176900617	0.1055447315971021	-0.4314348152166339	-0.001022602632781578	-0.1034025208022065	0.01083060647692204	-0.2998453532704647	-0.2998453532704642	-0.01373097705906931	4.988691088913811e-05	-0.01878483142281943	-0.006400494336524036	-0.39762649485519	0.01402751935374583	-0.005301300083821554	-0.2920973028480783	0.1097396805709679	0.04567750092572987	0.4360945719285365	-14.70988348059082	-17.31154869923038	2.362058303148975	3.08106883254452	-785.741098848086	-73.1061078152166	-2.073329445682717	0.9930384983146036	0.2307543777295883	1.212326002317348	-4.550698174655432	0.01047856077213425	-1.34952846130421	0.4923376613162026	-4.027648838637999	-4.027648838638122	-0.2039979290844733	0.009398621978629184	-0.7272556752154851	-0.2307679225274443	-2.517990902155547e-08	-3.876801515188626e-08	7.449886971704986e-08	1.862040822593744e-08	-4.191731299959762e-08	6.165606924113847e-08	-2.004036986232762e-08
